<?xml version="1.0" encoding="UTF-8"?>
<svg width="127px" height="142px" viewBox="0 0 127 142" version="1.1" xmlns="http://www.w3.org/2000/svg" xmlns:xlink="http://www.w3.org/1999/xlink">
	<!-- Generator: Sketch 63.1 (92452) - https://sketch.com -->
	<title>
		Group
	</title>
	<desc>
		Created with Sketch.
	</desc>
	<g id="21---Flujo-Cliente" stroke="none" stroke-width="1" fill="none" fill-rule="evenodd">
		<g id="Identificación---7-Copy" transform="translate(-97.000000, -289.000000)">
			<g id="Group" transform="translate(88.000000, 288.000000)">
				<polygon id="Path" points="0 0 144 0 144 144 0 144">
				</polygon>
				<path d="M112.627706,22.7774031 C121.472542,32.5958803 126.951644,45.6871832 127.264735,60.1694371 C127.969191,91.5067435 103.156687,118.507556 73.1781722,118.834838 C42.5734745,119.325762 17.6826973,93.5522596 17.6826973,61.6422086 C17.6826973,46.5872103 23.2400721,32.9231628 32.3197266,22.6955824 C35.2158234,19.5045773 35.2158234,14.5135181 32.2414537,11.4043336 C29.1105384,8.1315079 24.0228009,8.21332854 21.0484313,11.5679749 C9.69886307,24.168354 2.57603059,40.9415859 2.0281204,59.5148719 C0.932300024,99.4433459 32.0066351,133.971657 70.2038026,135.198967 C110.122974,136.508097 142.919312,103.043454 142.919312,61.560388 C142.919312,42.1688955 135.718207,24.6592779 123.977274,11.5679749 C121.002905,8.21332854 115.836894,8.1315079 112.705979,11.4043336 C109.653336,14.5953387 109.731609,19.586398 112.627706,22.7774031 Z" id="Shape" fill="#FFFFFF" fill-rule="nonzero" transform="translate(72.459656, 72.118056) rotate(-270.000000) translate(-72.459656, -72.118056) ">
				</path>
			</g>
		</g>
	</g>
</svg>
